<svg width="87" height="41" viewBox="0 0 87 41" fill="none" xmlns="http://www.w3.org/2000/svg">
<path d="M38.0286 27.8762C37.7985 27.921 36.2949 27.9929 35.2488 27.7627C34.1372 27.5181 33.6156 26.0488 33.3526 25.1611C32.9338 23.748 34.2915 21.8121 35.2069 20.5031C36.2363 19.031 38.0426 18.6825 38.9357 18.4546C40.1756 18.1382 42.038 19.9139 43.1114 21.1132C43.7639 21.8421 43.5079 23.5897 43.3572 24.7822C43.2419 25.6941 41.8194 26.5278 40.4383 27.2519C39.5692 27.5999 38.7244 28.143 38.0216 28.4967C37.8465 28.5281 37.6532 28.5111 36.9975 28.4081" stroke="#CAFF2B" stroke-width="2" stroke-linecap="round"/>
<path d="M36.9978 28.4081C36.6536 28.4081 34.1023 28.0823 29.9347 27.4799C27.6647 27.1517 25.0523 26.9853 22.4716 26.5084C19.8909 26.0315 17.414 25.3022 15.0745 24.3873C12.7351 23.4723 10.6082 22.3938 8.76727 21.3062C5.35269 19.2887 3.43197 17.5502 2.66031 16.6821C1.72454 15.6293 1.39302 14.1756 1.08127 11.7593C0.687704 8.70875 1.79884 6.48106 2.79642 4.40901C3.25786 3.45058 3.99277 2.94354 4.76891 2.49997C5.48228 2.09229 7.59961 1.7356 11.3929 1.23651C13.5867 0.947866 16.3715 1.00529 17.9404 1.00417C19.7899 1.00285 21.044 1.4389 22.7567 2.10545C25.0616 3.00251 26.1252 4.5021 27.7006 6.66325C28.8798 8.28108 30.627 11.1005 32.0091 13.6129C33.3912 16.1254 34.3033 18.2822 34.8583 19.5395C35.5837 21.0894 35.8733 21.5369 36.1116 21.8135C36.2357 21.944 36.3664 22.0546 36.6545 22.21" stroke="#CAFF2B" stroke-width="2" stroke-linecap="round"/>
<path d="M40.0381 20.2471C40.3026 20.1571 41.6823 19.4248 42.8916 18.424C43.8682 17.6157 44.3556 16.5635 44.7962 15.6293C45.5609 14.0077 46.8267 11.3642 48.3605 8.80049C50.2062 5.71538 50.2977 1.92247 50.762 1.3419C50.8722 1.20399 51.1207 1.30004 52.7796 1.52523C54.4386 1.75042 57.552 2.16787 59.9472 2.38946C63.9148 2.75652 66.2347 2.75461 67.3985 2.98035C69.4919 3.38644 71.8177 5.59257 72.6687 6.68549C73.8135 8.15583 73.3632 10.8434 73.0424 12.7559C72.9472 13.3237 72.6051 14.0346 71.9389 15.3348C71.2727 16.635 70.2156 18.4847 69.282 19.9083C67.681 22.3495 66.0921 23.8356 64.4049 25.1149C63.4314 25.8531 62.0705 26.5645 60.5585 27.271C59.0466 27.9776 57.3867 28.6046 56.0527 28.9919C53.7965 29.647 50.9869 29.6255 48.1955 29.5903C47.0221 29.5755 45.7429 29.2118 44.143 28.688C43.6313 28.5205 43.8046 28.3551 44.1964 28.2298C46.2515 27.5724 47.6891 27.066 49.9213 25.3526C51.6741 24.0072 54.4486 21.3999 56.1502 19.7876C58.4145 17.6421 59.3453 16.0851 60.2758 14.4007C61.9708 11.3326 61.803 8.48577 61.448 7.41997C60.9507 5.92719 59.8351 5.39817 58.9802 5.04616C58.4012 4.80778 57.7214 5.0798 56.3085 5.8007C50.7846 8.61903 50.5263 9.2259 50.1898 9.36114C49.0115 9.8347 49.6951 13.6367 48.8706 16.5702C48.4109 18.2062 46.9707 20.8863 46.2265 22.4714C45.3144 24.4144 44.9202 24.8556 44.6533 25.0703C44.5122 25.1663 44.3595 25.236 44.1973 25.2883C44.0352 25.3406 43.8681 25.3734 43.6483 25.409" stroke="#CAFF2B" stroke-width="2" stroke-linecap="round"/>
<path d="M33.9936 23.9347C33.5248 23.9139 31.5357 23.6265 29.5596 23.0641C28.6168 22.7958 27.1637 21.7204 25.1244 20.0753C23.01 18.3696 21.6672 16.3529 20.4257 14.3821C17.5414 9.80306 16.7652 8.66758 16.3781 8.09734C15.986 7.51963 16.0641 6.62854 16.2769 5.90465C16.5525 4.96738 17.6989 4.42445 19.0652 4.06323C20.0294 3.80831 20.4937 3.59812 20.8382 3.56912C21.1538 3.54255 22.1 5.7756 23.3937 9.13617C24.1052 10.9844 24.1796 13.2719 24.3333 16.0326C24.5009 17.5924 24.6152 18.2597 24.6932 18.6113C24.7463 18.7768 24.8268 18.916 24.9462 19.0595" stroke="#CAFF2B" stroke-width="2" stroke-linecap="round"/>
<path d="M31.2875 27.2619C31.2381 27.2619 30.8349 27.2731 27.4511 27.4953C24.4443 27.6927 18.8227 28.1166 14.8562 28.1593C10.8898 28.2019 8.74983 27.8643 7.56796 27.6724C6.22549 27.4543 5.90883 27.3457 5.74528 27.2982C5.58307 27.2511 6.45037 27.9591 7.34103 28.8468C8.22116 29.7239 10.3561 31.0181 12.8591 32.6251C14.1045 33.4247 15.3123 34.9076 16.9169 36.8352C18.2726 38.4638 19.8723 39.0887 21.1213 39.4625C22.2848 39.8107 23.6044 39.6971 24.529 39.6425C25.2099 39.6024 26.1516 39.0637 28.429 37.1753C30.1144 35.7778 32.5569 33.125 33.8854 31.7301C35.5908 29.9393 36.1083 28.2304 36.7553 27.335C36.8577 27.1932 37.0138 27.0943 37.1972 27.0375C37.3806 26.9808 37.6094 26.9889 40.8144 28.2811C44.0194 29.5733 50.1937 32.1494 53.9827 33.5626C57.7717 34.9758 58.9884 35.148 60.3593 35.2461C63.2135 35.4505 65.2214 35.333 68.1402 34.5305C70.6109 33.8511 75.0042 32.3226 77.9824 31.2502C82.4143 29.6543 84.1792 28.6407 84.8487 28.1866C85.4419 27.7843 85.7746 27.3429 85.8719 27.1351C85.9463 26.9763 85.3211 27.2946 84.0248 27.5361C81.0247 28.0951 78.3355 28.2999 77.1745 28.2752C75.8677 28.2474 74.9077 27.5075 74.2047 26.9505C73.9142 26.7203 73.7106 26.4389 73.3923 26.2838C72.9768 26.0812 72.2795 26.3493 69.9753 27.2462C68.0321 28.0026 64.5912 29.5532 61.9854 30.523C59.3796 31.4929 57.732 31.8817 56.3735 32.1002C52.765 32.6805 51.9479 32.0801 50.716 31.4438C49.9642 30.8134 49.5476 30.2302 49.3342 29.9544C49.1997 29.8326 49.0119 29.7475 48.5324 29.5656" stroke="#CAFF2B" stroke-width="2" stroke-linecap="round"/>
</svg>
